<?xml version="1.0" standalone="no"?><!DOCTYPE svg PUBLIC "-//W3C//DTD SVG 1.1//EN" "http://www.w3.org/Graphics/SVG/1.1/DTD/svg11.dtd"><svg t="1586843517882" class="icon" viewBox="0 0 1024 1024" version="1.1" xmlns="http://www.w3.org/2000/svg" p-id="583" xmlns:xlink="http://www.w3.org/1999/xlink" width="16" height="16"><defs><style type="text/css"></style></defs><path d="M512.028444 56.888889C762.936889 56.888889 967.111111 261.063111 967.111111 512s-204.174222 455.111111-455.082667 455.111111c-250.936889 0-455.111111-204.174222-455.111111-455.111111s204.174222-455.111111 455.111111-455.111111m0-56.888889c-282.737778 0-512 229.233778-512 512s229.262222 512 512 512S1024 794.766222 1024 512 794.766222 0 512.028444 0z" p-id="584" fill="#515151"></path><path d="M323.584 268.316444h67.584L512 492.231111l120.832-223.914667h67.612444l-139.264 245.077334h101.717334v34.133333h-120.832v66.929778h120.832v34.104889h-120.832v107.178666h-60.074667v-107.178666h-120.149333v-34.104889h120.149333v-66.929778h-120.149333v-34.133333h101.034666l-139.292444-245.077334z" p-id="585" fill="#515151"></path></svg>