<?xml version="1.0" standalone="no"?><!DOCTYPE svg PUBLIC "-//W3C//DTD SVG 1.1//EN" "http://www.w3.org/Graphics/SVG/1.1/DTD/svg11.dtd"><svg class="icon" width="16px" height="16.00px" viewBox="0 0 1024 1024" version="1.1" xmlns="http://www.w3.org/2000/svg"><path fill="#555555" d="M928 507q0 83-30 157l-10 24.5-92.5 16.5q-11 41.5-45.25 68.25t-78.25 26.75l0 16q0 7-4.5 11.5t-11.5 4.5l-32 0q-7 0-11.5-4.5t-4.5-11.5l0-288q0-7 4.5-11.5t11.5-4.5l32 0q7 0 11.5 4.5t4.5 11.5l0 16q35.5 0 65 17.75t46.5 47.75l34-6q14.5-47.5 14.5-96.5 0-74-44-139.5t-118.25-104.5-157.75-39-157.75 39-118.25 104.5-44 139.5q0 49 14.5 96.5l34 6q17-30 46.5-47.75t65-17.75l0-16q0-7 4.5-11.5t11.5-4.5l32 0q7 0 11.5 4.5t4.5 11.5l0 288q0 7-4.5 11.5t-11.5 4.5l-32 0q-7 0-11.5-4.5t-4.5-11.5l0-16q-44 0-78.25-26.75t-45.25-68.25l-92.5-16.5-10-24.5q-30-74-30-157 0-75.5 33.5-145.5t89.5-121.25 133-81.75 160-30.5 160 30.5 133 81.75 89.5 121.25 33.5 145.5z" /></svg>