<?xml version="1.0" standalone="no"?><!DOCTYPE svg PUBLIC "-//W3C//DTD SVG 1.1//EN" "http://www.w3.org/Graphics/SVG/1.1/DTD/svg11.dtd"><svg t="1585125006407" class="icon" viewBox="0 0 1024 1024" version="1.1" xmlns="http://www.w3.org/2000/svg" p-id="1914" xmlns:xlink="http://www.w3.org/1999/xlink" width="16" height="16"><defs><style type="text/css"></style></defs><path d="M512 704c106.04 0 192-85.96 192-192V192c0-106.04-85.96-192-192-192S320 85.96 320 192v320c0 106.04 85.96 192 192 192z m320-320h-32c-17.68 0-32 14.32-32 32v96c0 149.6-128.98 269.64-281.58 254.76C353.42 753.78 256 634.22 256 500.6V416c0-17.68-14.32-32-32-32H192c-17.68 0-32 14.32-32 32v80.32c0 179.28 127.94 339.1 304 363.38V928H352c-17.68 0-32 14.32-32 32v32c0 17.68 14.32 32 32 32h320c17.68 0 32-14.32 32-32v-32c0-17.68-14.32-32-32-32h-112v-67.54C731.42 836.94 864 689.8 864 512v-96c0-17.68-14.32-32-32-32z" fill="#555555" p-id="1915"></path></svg>